
          <svg
            version="1.1"
            xmlns="http://www.w3.org/2000/svg"
            x="0px"
            y="0px"
            viewBox="0 0 1000 1000"
            enable-background="new 0 0 1000 1000"
          >
            <metadata>
              Svg Vector Icons : http://www.onlinewebfonts.com/icon{" "}
            </metadata>
            <g>
              <g transform="translate(0.000000,511.000000) scale(0.100000,-0.100000)">
                <path d="M4594.6,5006.6c-1248.2-130.2-2309.6-638.8-3130.3-1498.8C756.7,2768.2,321.8,1893.5,142.4,856.6C85.9,515,85.9-300.7,142.4-642.2c189.2-1088.5,631.5-1955.8,1390.7-2717.5c749.4-751.9,1636.4-1204,2717.5-1390.7c341.5-56.5,1157.3-56.5,1498.8,0c1078.7,186.7,1965.6,638.8,2717.5,1390.7c749.4,749.4,1206.4,1641.3,1390.7,2717.5c56.5,341.5,56.5,1157.3,0,1498.8c-186.8,1078.6-641.3,1968.1-1390.7,2717.5C7707.7,4330.9,6823.1,4783,5761.7,4959.9C5535.6,4996.7,4793.6,5026.2,4594.6,5006.6z M5577.4,4591.3c1294.9-172,2447.2-887,3169.6-1965.6c901.7-1344,1024.6-3007.4,329.2-4459.6C8290-3472.8,6629-4477.7,4828-4406.5c-869.8,34.4-1616.7,280.1-2346.5,766.6C1186.6-2775,434.8-1308.1,486.4,242.3c32,882.1,277.7,1651.2,766.6,2383.3c729.8,1090.9,1928.8,1823.1,3238.4,1975.5C4778.9,4635.5,5287.5,4630.6,5577.4,4591.3z" />
                <path d="M5344,3588.8v-186.7l142.5-14.7c631.5-63.9,1049.2-206.4,1503.7-511.1c235.9-157.3,621.6-543,778.9-778.9c312.1-466.8,434.9-830.5,513.5-1540.6l12.3-105.6h186.7h186.7l-14.7,265.4c-46.7,820.7-491.4,1702.7-1130.2,2240.8c-570,484-1243.3,764.2-1914.1,803.5l-265.4,14.7V3588.8z" />
                <path d="M4638.8,1633C3604.4,1377.5,3113,215.3,3653.5-698.8c44.2-76.2,152.3-211.3,240.8-299.8c891.9-889.5,2390.7-430,2643.8,810.8C6761.7,915.5,5732.2,1900.8,4638.8,1633z M5282.6,1249.7c629-164.6,1019.7-808.4,860-1420.2c-164.6-633.9-808.4-1024.6-1420.2-864.9c-624.1,162.2-1004.9,771.5-874.7,1393.2c88.4,412.8,459.5,793.6,869.8,894.4C4889.4,1293.9,5113,1293.9,5282.6,1249.7z" />
              </g>
            </g>
          </svg>


